<svg xmlns="http://www.w3.org/2000/svg" height="20" width="20"><path d="M10.042 16.167q-2.563 0-4.365-1.802Q3.875 12.562 3.875 10q0-2.333 1.51-4.042Q6.896 4.25 9.104 3.917h.104q.042 0 .104.021-.374.583-.593 1.229Q8.5 5.812 8.5 6.5q0 2.125 1.469 3.583 1.469 1.459 3.573 1.459.666 0 1.323-.219.656-.219 1.239-.594 0 .063.011.115.01.052.01.094-.333 2.229-2.042 3.729-1.708 1.5-4.041 1.5Zm0-.667q1.708 0 3.104-.979 1.396-.979 2.042-2.563-.417.104-.823.177-.407.073-.823.073-2.375 0-4.042-1.666Q7.833 8.875 7.833 6.5q0-.417.073-.823.073-.406.177-.823Q6.5 5.5 5.521 6.896 4.542 8.292 4.542 10q0 2.292 1.604 3.896t3.896 1.604Zm-.292-5.208Z" fill="currentColor"  /></svg>