<svg xmlns="http://www.w3.org/2000/svg" height="20" width="20"><path fill="currentColor" d="M10 12.5q1.042 0 1.771-.729.729-.729.729-1.771 0-1.042-.729-1.771Q11.042 7.5 10 7.5q-1.042 0-1.771.729Q7.5 8.958 7.5 10q0 1.042.729 1.771.729.729 1.771.729Zm0 .667q-1.333 0-2.25-.927-.917-.928-.917-2.24 0-1.333.927-2.25.928-.917 2.24-.917 1.333 0 2.25.927.917.928.917 2.24 0 1.333-.927 2.25-.928.917-2.24.917Zm-8.25-2.834q-.146 0-.24-.093-.093-.094-.093-.24t.093-.24q.094-.093.24-.093h2.417q.145 0 .239.093.094.094.094.24t-.094.24q-.094.093-.239.093Zm14.083 0q-.145 0-.239-.093-.094-.094-.094-.24t.094-.24q.094-.093.239-.093h2.417q.146 0 .24.093.093.094.093.24t-.093.24q-.094.093-.24.093ZM10 4.5q-.146 0-.24-.094-.093-.094-.093-.239V1.75q0-.146.093-.24.094-.093.24-.093t.24.093q.093.094.093.24v2.417q0 .145-.093.239-.094.094-.24.094Zm0 14.083q-.146 0-.24-.093-.093-.094-.093-.24v-2.417q0-.145.093-.239.094-.094.24-.094t.24.094q.093.094.093.239v2.417q0 .146-.093.24-.094.093-.24.093Zm-4.375-12.5L4.292 4.729q-.104-.083-.115-.208-.01-.125.115-.229.104-.125.218-.125.115 0 .219.125l1.375 1.333q.125.104.125.24 0 .135-.125.239-.104.125-.229.125t-.25-.146Zm9.646 9.625-1.375-1.333q-.125-.104-.125-.229t.125-.25q.083-.125.219-.125.135 0 .26.146l1.333 1.354q.104.083.115.208.01.125-.115.229-.104.125-.208.125t-.229-.125Zm-1.375-9.604q-.125-.104-.125-.229t.146-.25l1.354-1.333q.104-.104.219-.104.114 0 .218.104.125.104.125.208t-.125.229l-1.333 1.375q-.104.125-.24.125-.135 0-.239-.125Zm-9.604 9.604q-.125-.104-.125-.218 0-.115.125-.219l1.333-1.375q.104-.104.229-.104t.25.104q.104.104.094.229-.01.125-.115.25l-1.354 1.333q-.104.125-.219.136-.114.01-.218-.136ZM10 10Z"/></svg>